<?xml version="1.0"?>
<svg xmlns="http://www.w3.org/2000/svg" xmlns:xlink="http://www.w3.org/1999/xlink" xmlns:svgjs="http://svgjs.com/svgjs" version="1.1" width="512" height="512" x="0" y="0" viewBox="0 0 512 512" style="enable-background:new 0 0 512 512" xml:space="preserve" class=""><g><g xmlns="http://www.w3.org/2000/svg"><g><g><path d="m277.23 311.445v63.976c0 6.397-4.266 10.662-10.662 10.662s-10.662-4.266-10.662-10.662-4.266-10.662-10.662-10.662-10.662 4.266-10.662 10.662c0 17.06 14.928 31.987 31.987 31.987s31.987-14.928 31.987-31.987v-63.976c0-6.397-4.266-10.662-10.662-10.662s-10.664 4.265-10.664 10.662z" fill="#9c27b0" data-original="#000000" style="" class=""/><path d="m371.061 426.602c-19.193 2.132-40.518-2.132-55.446-14.928-4.266-4.266-10.662-4.266-14.928 0-10.662 8.53-23.458 14.928-36.253 14.928-29.855 0-53.313-23.458-53.313-53.313 0-17.06 14.928-31.987 31.987-31.987 6.397 0 10.662-4.266 10.662-10.662v-21.325c0-17.06 14.928-31.987 31.987-31.987 8.53 0 17.06 4.266 23.458 8.53 4.266 4.266 8.53 4.266 12.795 2.132 12.796-8.53 31.987-12.796 49.048-10.662 2.132 0 6.397 0 8.53-2.132s4.266-4.266 4.266-8.53v-255.907c0-6.397-4.266-10.662-10.662-10.662h-234.577s0 0-2.132 0c0 0 0 0-2.132 0s-4.266 2.132-4.266 2.132l-127.953 127.952c-2.132 2.133-2.132 2.133-2.132 4.266v2.132 2.132 362.529c0 6.397 4.266 10.663 10.662 10.663h362.529c6.397 0 10.662-4.266 10.662-10.663v-63.976c0-2.132-2.132-6.397-4.266-8.53-2.128 0-4.261-2.132-8.526-2.132zm-243.108-296.421h-91.699l91.699-91.699z" fill="#9c27b0" data-original="#000000" style="" class=""/><path d="m481.952 354.096 27.723-36.253c4.266-4.266 2.132-10.663-2.132-14.928-4.266-4.266-10.662-2.132-14.928 2.132l-23.458 31.987-23.458-31.987c-4.266-4.266-10.663-6.397-14.928-2.132-4.266 4.266-6.397 10.662-2.132 14.928l27.723 36.253-27.723 36.253c-4.266 4.266-2.132 10.662 2.132 14.928 2.132 2.132 4.266 2.132 6.397 2.132 4.266 0 6.397-2.132 8.53-4.266l23.458-31.987 23.458 31.987c2.132 2.132 4.266 4.266 8.53 4.266 2.132 0 4.266 0 6.397-2.132 4.266-4.266 6.397-10.662 2.132-14.928z" fill="#9c27b0" data-original="#000000" style="" class=""/><path d="m366.796 343.434h-2.132c-19.193-2.132-21.325-8.53-21.325-10.662 0-4.266 8.53-10.662 21.325-10.662 12.796 0 21.325 6.397 21.325 10.662 0 6.397 6.397 10.662 10.662 10.662 6.397 0 10.662-6.397 10.662-10.662-2.132-17.06-19.193-29.855-42.651-29.855s-42.651 14.928-42.651 31.987 12.796 27.723 38.385 31.987h4.265c17.06 2.132 21.325 6.397 21.325 10.663s-8.53 10.662-21.325 10.662-21.325-6.397-21.325-10.662c0-6.397-6.397-10.663-10.662-10.663-6.397 0-10.662 6.397-8.53 10.663 2.132 17.06 19.193 29.855 42.651 29.855s42.651-14.928 42.651-31.987c-4.265-17.06-17.059-27.724-42.65-31.988z" fill="#9c27b0" data-original="#000000" style="" class=""/></g></g></g><g xmlns="http://www.w3.org/2000/svg"/><g xmlns="http://www.w3.org/2000/svg"/><g xmlns="http://www.w3.org/2000/svg"/><g xmlns="http://www.w3.org/2000/svg"/><g xmlns="http://www.w3.org/2000/svg"/><g xmlns="http://www.w3.org/2000/svg"/><g xmlns="http://www.w3.org/2000/svg"/><g xmlns="http://www.w3.org/2000/svg"/><g xmlns="http://www.w3.org/2000/svg"/><g xmlns="http://www.w3.org/2000/svg"/><g xmlns="http://www.w3.org/2000/svg"/><g xmlns="http://www.w3.org/2000/svg"/><g xmlns="http://www.w3.org/2000/svg"/><g xmlns="http://www.w3.org/2000/svg"/><g xmlns="http://www.w3.org/2000/svg"/></g></svg>
